# Blender 4.4.3
# www.blender.org
mtllib lopolybronco.mtl
o Cube
v 0.053707 0.137591 -0.824669
v 0.099238 0.107168 -0.824669
v 0.129660 0.061637 -0.824669
v 0.140343 0.007930 -0.824669
v 0.129660 -0.045777 -0.824669
v 0.099238 -0.091308 -0.824669
v 0.053707 -0.121730 -0.824669
v 0.000000 -0.132413 -0.824669
v 0.000000 -0.132413 -0.723477
v -0.053707 -0.121730 -0.824669
v -0.099238 -0.091308 -0.824669
v -0.129661 -0.045777 -0.824669
v -0.140344 0.007930 -0.824669
v -0.129661 0.061637 -0.824669
v -0.099238 0.107168 -0.824669
v -0.053707 0.137591 -0.824669
v 0.000000 0.148274 -0.824669
v 0.000000 0.148274 -0.723477
v 0.000000 -0.140221 -0.791877
v 0.000000 -0.140221 -0.756269
v 0.000000 0.156082 -0.756269
v 0.000000 0.156082 -0.791877
v 0.000000 -0.251663 -0.672818
v 0.000000 0.026297 0.782121
v 0.000000 -0.207698 0.809131
v 0.000000 0.282853 -0.618813
v 0.000000 0.280009 0.142853
v 0.000000 -0.240873 0.729167
v 0.000000 0.050674 0.272421
v 0.000000 0.041090 -0.727342
v 0.000000 -0.074805 0.806350
v 0.000000 -0.100808 -0.716773
v 0.000000 -0.251846 -0.541803
v 0.000000 0.291296 -0.516008
v 0.000000 -0.265868 -0.229577
v 0.000000 0.302640 -0.285643
v 0.000000 -0.252676 0.301388
v 0.000000 0.293042 -0.023068
v 0.000000 -0.175334 -0.693319
v 0.000000 -0.137980 0.805622
v 0.000000 0.039521 0.537210
v 0.000000 -0.240356 0.760012
v 0.000000 0.285460 0.070496
v 0.000000 -0.240873 0.523646
v 0.000000 -0.265868 -0.393100
v 0.000000 0.298115 -0.399773
v 0.000000 0.119642 -0.714847
v 0.000000 0.203867 -0.685048
v 0.000000 0.203564 0.186042
v 0.000000 0.127119 0.229232
v -0.206881 0.283316 -0.594594
v -0.313338 -0.255290 -0.624190
v -0.282909 0.014437 0.743685
v -0.306913 -0.211827 0.782575
v -0.223553 0.273537 0.109811
v -0.309883 0.054930 0.281582
v -0.315271 -0.243822 0.735321
v -0.313338 0.042238 -0.667562
v -0.300220 -0.080466 0.763596
v -0.313338 -0.105376 -0.646837
v -0.315271 -0.068743 0.629705
v -0.226158 0.286949 -0.518559
v -0.313338 -0.265868 -0.548468
v -0.313338 0.043864 -0.548886
v -0.313338 -0.131501 -0.498697
v -0.226158 0.292326 -0.288266
v -0.313338 -0.128452 -0.276986
v -0.313338 -0.265868 -0.229577
v -0.313338 0.044941 -0.277880
v -0.226158 0.281396 -0.023645
v -0.315271 -0.109625 0.399278
v -0.315271 -0.240873 0.345920
v -0.313338 0.047332 0.069781
v -0.313338 -0.187170 -0.620232
v -0.307939 -0.146600 0.773965
v -0.315271 -0.172990 0.729242
v -0.313338 -0.196430 -0.554272
v -0.313338 -0.195223 -0.225685
v -0.315271 -0.174936 0.358878
v -0.104446 -0.251663 -0.672818
v -0.104446 0.026297 0.782121
v -0.100774 -0.207698 0.809131
v -0.075386 0.283355 -0.618579
v -0.075386 0.280009 0.142855
v -0.095271 -0.240873 0.729167
v -0.104446 0.050674 0.272421
v -0.104446 0.041090 -0.727342
v -0.104270 -0.074805 0.806350
v -0.104446 -0.100808 -0.716773
v -0.104446 -0.251846 -0.541803
v -0.075386 0.292369 -0.515651
v -0.104446 -0.265868 -0.229577
v -0.075386 0.304651 -0.284973
v -0.095271 -0.252676 0.301388
v -0.075386 0.293902 -0.022780
v -0.104446 -0.175334 -0.693319
v -0.102713 -0.137980 0.805622
v -0.289716 0.028576 0.553936
v -0.312524 -0.237746 0.764682
v -0.302693 -0.084027 0.694227
v -0.312007 -0.170623 0.759929
v -0.096117 -0.240356 0.760012
v -0.104446 0.039521 0.537210
v -0.224856 0.276910 0.050739
v -0.315271 -0.063273 0.449435
v -0.313338 0.052562 0.193222
v -0.095271 -0.240873 0.523646
v -0.075386 0.285805 0.070594
v -0.313338 0.045167 -0.412839
v -0.226158 0.291166 -0.403721
v -0.313338 -0.118360 -0.387853
v -0.075386 0.299792 -0.399214
v -0.104446 -0.265868 -0.393100
v -0.266718 0.199791 0.173069
v -0.251563 0.204444 -0.638173
v -0.288396 0.120110 -0.659317
v -0.264903 0.208662 -0.546980
v -0.295065 0.123749 -0.553904
v -0.264903 0.212946 -0.287701
v -0.295065 0.126425 -0.282414
v -0.264903 0.204294 0.015344
v -0.295065 0.123032 0.031878
v -0.088301 0.203996 -0.684995
v -0.098355 0.119642 -0.714847
v -0.264001 0.202762 0.099898
v -0.294615 0.125627 0.148959
v -0.264903 0.212712 -0.419275
v -0.295065 0.126765 -0.419904
v -0.053707 0.137591 -0.824669
v -0.053707 0.137591 -0.723477
v -0.099238 0.107168 -0.824669
v -0.099238 0.107168 -0.723477
v -0.129660 0.061637 -0.824669
v -0.129660 0.061637 -0.723477
v -0.140343 0.007930 -0.824669
v -0.140343 0.007930 -0.723477
v -0.129660 -0.045777 -0.824669
v -0.129660 -0.045777 -0.723477
v -0.099238 -0.091308 -0.824669
v -0.099238 -0.091308 -0.723477
v -0.053707 -0.121730 -0.824669
v -0.053707 -0.121730 -0.723477
v -0.219688 -0.132490 -0.387675
v -0.320880 -0.132490 -0.387675
v -0.219688 -0.143173 -0.333968
v -0.320880 -0.143173 -0.333968
v -0.219688 -0.173596 -0.288437
v -0.320880 -0.173596 -0.288437
v -0.219687 -0.219126 -0.258014
v -0.320880 -0.219126 -0.258014
v -0.219687 -0.272834 -0.247331
v -0.320880 -0.272834 -0.247331
v -0.219687 -0.326541 -0.258014
v -0.320880 -0.326541 -0.258014
v -0.219687 -0.372072 -0.288437
v -0.320880 -0.372072 -0.288437
v -0.219687 -0.402494 -0.333968
v -0.320880 -0.402494 -0.333968
v -0.219687 -0.413177 -0.387675
v -0.320880 -0.413177 -0.387675
v -0.219687 -0.402494 -0.441382
v -0.320880 -0.402494 -0.441382
v -0.219687 -0.372072 -0.486913
v -0.320880 -0.372072 -0.486913
v -0.219687 -0.326541 -0.517335
v -0.320880 -0.326541 -0.517335
v -0.219687 -0.272834 -0.528018
v -0.320880 -0.272834 -0.528018
v -0.219687 -0.219126 -0.517335
v -0.320880 -0.219126 -0.517335
v -0.219688 -0.173596 -0.486913
v -0.320880 -0.173596 -0.486913
v -0.219688 -0.143173 -0.441382
v -0.320880 -0.143173 -0.441382
v -0.056695 0.144804 -0.791877
v -0.056695 0.144804 -0.756269
v -0.104759 0.112689 -0.791877
v -0.104759 0.112689 -0.756269
v -0.136874 0.064625 -0.791877
v -0.136874 0.064625 -0.756269
v -0.148151 0.007930 -0.791877
v -0.148151 0.007930 -0.756269
v -0.136874 -0.048765 -0.791877
v -0.136874 -0.048765 -0.756269
v -0.104759 -0.096829 -0.791877
v -0.104759 -0.096829 -0.756269
v -0.056695 -0.128944 -0.791877
v -0.056695 -0.128944 -0.756269
v -0.288088 -0.135960 -0.444370
v -0.252480 -0.135960 -0.444370
v -0.288088 -0.168075 -0.492434
v -0.252480 -0.168075 -0.492434
v -0.288088 -0.216138 -0.524549
v -0.252480 -0.216138 -0.524549
v -0.288088 -0.272834 -0.535826
v -0.252480 -0.272834 -0.535826
v -0.288088 -0.329529 -0.524549
v -0.252480 -0.329529 -0.524549
v -0.288087 -0.377593 -0.492434
v -0.252480 -0.377593 -0.492434
v -0.288087 -0.409708 -0.444370
v -0.252480 -0.409708 -0.444370
v -0.288087 -0.420985 -0.387675
v -0.252480 -0.420985 -0.387675
v -0.288087 -0.409708 -0.330980
v -0.252480 -0.409708 -0.330980
v -0.288087 -0.377593 -0.282916
v -0.252480 -0.377593 -0.282916
v -0.288088 -0.329529 -0.250801
v -0.252480 -0.329529 -0.250801
v -0.288088 -0.272834 -0.239523
v -0.252480 -0.272834 -0.239523
v -0.288088 -0.216138 -0.250801
v -0.252480 -0.216138 -0.250801
v -0.288088 -0.168075 -0.282916
v -0.252480 -0.168075 -0.282916
v -0.288088 -0.135960 -0.330980
v -0.252480 -0.135960 -0.330980
v -0.252480 -0.124682 -0.387675
v -0.288088 -0.124682 -0.387675
v -0.219688 -0.132490 0.539244
v -0.320880 -0.132490 0.539244
v -0.219688 -0.143173 0.592951
v -0.320880 -0.143173 0.592951
v -0.219688 -0.173596 0.638481
v -0.320880 -0.173596 0.638481
v -0.219687 -0.219126 0.668904
v -0.320880 -0.219126 0.668904
v -0.219687 -0.272834 0.679587
v -0.320880 -0.272834 0.679587
v -0.219687 -0.326541 0.668904
v -0.320880 -0.326541 0.668904
v -0.219687 -0.372072 0.638481
v -0.320880 -0.372072 0.638481
v -0.219687 -0.402494 0.592951
v -0.320880 -0.402494 0.592951
v -0.219687 -0.413177 0.539244
v -0.320880 -0.413177 0.539244
v -0.219687 -0.402494 0.485536
v -0.320880 -0.402494 0.485536
v -0.219687 -0.372072 0.440006
v -0.320880 -0.372072 0.440006
v -0.219687 -0.326541 0.409583
v -0.320880 -0.326541 0.409583
v -0.219687 -0.272834 0.398900
v -0.320880 -0.272834 0.398900
v -0.219687 -0.219126 0.409583
v -0.320880 -0.219126 0.409583
v -0.219688 -0.173596 0.440006
v -0.320880 -0.173596 0.440006
v -0.219688 -0.143173 0.485536
v -0.320880 -0.143173 0.485536
v -0.288088 -0.135960 0.482549
v -0.252480 -0.135960 0.482548
v -0.288088 -0.168075 0.434485
v -0.252480 -0.168075 0.434485
v -0.288088 -0.216138 0.402369
v -0.252480 -0.216138 0.402369
v -0.288088 -0.272834 0.391092
v -0.252480 -0.272834 0.391092
v -0.288088 -0.329529 0.402369
v -0.252480 -0.329529 0.402369
v -0.288087 -0.377593 0.434485
v -0.252480 -0.377593 0.434485
v -0.288087 -0.409708 0.482549
v -0.252480 -0.409708 0.482548
v -0.288087 -0.420985 0.539244
v -0.252480 -0.420985 0.539244
v -0.288087 -0.409708 0.595939
v -0.252480 -0.409708 0.595939
v -0.288087 -0.377593 0.644003
v -0.252480 -0.377593 0.644003
v -0.288088 -0.329529 0.676118
v -0.252480 -0.329529 0.676118
v -0.288088 -0.272834 0.687395
v -0.252480 -0.272834 0.687395
v -0.288088 -0.216138 0.676118
v -0.252480 -0.216138 0.676118
v -0.288088 -0.168075 0.644003
v -0.252480 -0.168075 0.644003
v -0.288088 -0.135960 0.595939
v -0.252480 -0.135960 0.595939
v -0.252480 -0.124682 0.539244
v -0.288088 -0.124682 0.539244
v -0.288301 0.145139 0.216011
v -0.085073 0.203564 0.186044
v -0.094759 0.127119 0.229232
v -0.053707 0.137591 -0.824669
v -0.099238 0.107168 -0.824669
v -0.129660 0.061637 -0.824669
v -0.140343 0.007930 -0.824669
v -0.129660 -0.045777 -0.824669
v -0.099238 -0.091308 -0.824669
v -0.053707 -0.121730 -0.824669
v 0.053707 -0.121730 -0.824669
v 0.099238 -0.091308 -0.824669
v 0.129661 -0.045777 -0.824669
v 0.140344 0.007930 -0.824669
v 0.129661 0.061637 -0.824669
v 0.099238 0.107168 -0.824669
v 0.053707 0.137591 -0.824669
v 0.206881 0.283316 -0.594594
v 0.313338 -0.255290 -0.624190
v 0.282909 0.014437 0.743685
v 0.306913 -0.211827 0.782575
v 0.223553 0.273537 0.109811
v 0.309883 0.054930 0.281582
v 0.315271 -0.243822 0.735321
v 0.313338 0.042238 -0.667562
v 0.300220 -0.080466 0.763596
v 0.313338 -0.105376 -0.646837
v 0.315271 -0.068743 0.629705
v 0.226158 0.286949 -0.518559
v 0.313338 -0.265868 -0.548468
v 0.313338 0.043864 -0.548886
v 0.313338 -0.131501 -0.498697
v 0.226158 0.292326 -0.288266
v 0.313338 -0.128452 -0.276986
v 0.313338 -0.265868 -0.229577
v 0.313338 0.044941 -0.277880
v 0.226158 0.281396 -0.023645
v 0.315271 -0.109625 0.399278
v 0.315271 -0.240873 0.345920
v 0.313338 0.047332 0.069781
v 0.313338 -0.187170 -0.620232
v 0.307939 -0.146600 0.773965
v 0.315271 -0.172990 0.729242
v 0.313338 -0.196430 -0.554272
v 0.313338 -0.195223 -0.225685
v 0.315271 -0.174936 0.358878
v 0.104446 -0.251663 -0.672818
v 0.104446 0.026297 0.782121
v 0.100774 -0.207698 0.809131
v 0.075386 0.283355 -0.618579
v 0.075386 0.280009 0.142855
v 0.095271 -0.240873 0.729167
v 0.104446 0.050674 0.272421
v 0.104446 0.041090 -0.727342
v 0.104270 -0.074805 0.806350
v 0.104446 -0.100808 -0.716773
v 0.104446 -0.251846 -0.541803
v 0.075386 0.292369 -0.515651
v 0.104446 -0.265868 -0.229577
v 0.075386 0.304651 -0.284973
v 0.095271 -0.252676 0.301388
v 0.075386 0.293902 -0.022780
v 0.104446 -0.175334 -0.693319
v 0.102713 -0.137980 0.805622
v 0.289716 0.028576 0.553936
v 0.312524 -0.237746 0.764682
v 0.302693 -0.084027 0.694227
v 0.312007 -0.170623 0.759929
v 0.096117 -0.240356 0.760012
v 0.104446 0.039521 0.537210
v 0.224856 0.276910 0.050739
v 0.315271 -0.063273 0.449435
v 0.313338 0.052562 0.193222
v 0.095271 -0.240873 0.523646
v 0.075386 0.285805 0.070594
v 0.313338 0.045167 -0.412839
v 0.226158 0.291166 -0.403721
v 0.313338 -0.118360 -0.387853
v 0.075386 0.299792 -0.399214
v 0.104446 -0.265868 -0.393100
v 0.266718 0.199791 0.173069
v 0.251563 0.204444 -0.638173
v 0.288396 0.120110 -0.659317
v 0.264903 0.208662 -0.546980
v 0.295065 0.123749 -0.553904
v 0.264903 0.212946 -0.287701
v 0.295065 0.126425 -0.282414
v 0.264903 0.204294 0.015344
v 0.295065 0.123032 0.031878
v 0.088301 0.203996 -0.684995
v 0.098355 0.119642 -0.714847
v 0.264001 0.202762 0.099898
v 0.294615 0.125627 0.148959
v 0.264903 0.212712 -0.419275
v 0.295065 0.126765 -0.419904
v 0.053707 0.137591 -0.824669
v 0.053707 0.137591 -0.723477
v 0.099238 0.107168 -0.824669
v 0.099238 0.107168 -0.723477
v 0.129660 0.061637 -0.824669
v 0.129660 0.061637 -0.723477
v 0.140343 0.007930 -0.824669
v 0.140343 0.007930 -0.723477
v 0.129660 -0.045777 -0.824669
v 0.129660 -0.045777 -0.723477
v 0.099238 -0.091308 -0.824669
v 0.099238 -0.091308 -0.723477
v 0.053707 -0.121730 -0.824669
v 0.053707 -0.121730 -0.723477
v 0.219688 -0.132490 -0.387675
v 0.320880 -0.132490 -0.387675
v 0.219688 -0.143173 -0.333968
v 0.320880 -0.143173 -0.333968
v 0.219688 -0.173596 -0.288437
v 0.320880 -0.173596 -0.288437
v 0.219687 -0.219126 -0.258014
v 0.320880 -0.219126 -0.258014
v 0.219687 -0.272834 -0.247331
v 0.320880 -0.272834 -0.247331
v 0.219687 -0.326541 -0.258014
v 0.320880 -0.326541 -0.258014
v 0.219687 -0.372072 -0.288437
v 0.320880 -0.372072 -0.288437
v 0.219687 -0.402494 -0.333968
v 0.320880 -0.402494 -0.333968
v 0.219687 -0.413177 -0.387675
v 0.320880 -0.413177 -0.387675
v 0.219687 -0.402494 -0.441382
v 0.320880 -0.402494 -0.441382
v 0.219687 -0.372072 -0.486913
v 0.320880 -0.372072 -0.486913
v 0.219687 -0.326541 -0.517335
v 0.320880 -0.326541 -0.517335
v 0.219687 -0.272834 -0.528018
v 0.320880 -0.272834 -0.528018
v 0.219687 -0.219126 -0.517335
v 0.320880 -0.219126 -0.517335
v 0.219688 -0.173596 -0.486913
v 0.320880 -0.173596 -0.486913
v 0.219688 -0.143173 -0.441382
v 0.320880 -0.143173 -0.441382
v 0.056695 0.144804 -0.791877
v 0.056695 0.144804 -0.756269
v 0.104759 0.112689 -0.791877
v 0.104759 0.112689 -0.756269
v 0.136874 0.064625 -0.791877
v 0.136874 0.064625 -0.756269
v 0.148151 0.007930 -0.791877
v 0.148151 0.007930 -0.756269
v 0.136874 -0.048765 -0.791877
v 0.136874 -0.048765 -0.756269
v 0.104759 -0.096829 -0.791877
v 0.104759 -0.096829 -0.756269
v 0.056695 -0.128944 -0.791877
v 0.056695 -0.128944 -0.756269
v 0.288088 -0.135960 -0.444370
v 0.252480 -0.135960 -0.444370
v 0.288088 -0.168075 -0.492434
v 0.252480 -0.168075 -0.492434
v 0.288088 -0.216138 -0.524549
v 0.252480 -0.216138 -0.524549
v 0.288088 -0.272834 -0.535826
v 0.252480 -0.272834 -0.535826
v 0.288088 -0.329529 -0.524549
v 0.252480 -0.329529 -0.524549
v 0.288087 -0.377593 -0.492434
v 0.252480 -0.377593 -0.492434
v 0.288087 -0.409708 -0.444370
v 0.252480 -0.409708 -0.444370
v 0.288087 -0.420985 -0.387675
v 0.252480 -0.420985 -0.387675
v 0.288087 -0.409708 -0.330980
v 0.252480 -0.409708 -0.330980
v 0.288087 -0.377593 -0.282916
v 0.252480 -0.377593 -0.282916
v 0.288088 -0.329529 -0.250801
v 0.252480 -0.329529 -0.250801
v 0.288088 -0.272834 -0.239523
v 0.252480 -0.272834 -0.239523
v 0.288088 -0.216138 -0.250801
v 0.252480 -0.216138 -0.250801
v 0.288088 -0.168075 -0.282916
v 0.252480 -0.168075 -0.282916
v 0.288088 -0.135960 -0.330980
v 0.252480 -0.135960 -0.330980
v 0.252480 -0.124682 -0.387675
v 0.288088 -0.124682 -0.387675
v 0.219688 -0.132490 0.539244
v 0.320880 -0.132490 0.539244
v 0.219688 -0.143173 0.592951
v 0.320880 -0.143173 0.592951
v 0.219688 -0.173596 0.638481
v 0.320880 -0.173596 0.638481
v 0.219687 -0.219126 0.668904
v 0.320880 -0.219126 0.668904
v 0.219687 -0.272834 0.679587
v 0.320880 -0.272834 0.679587
v 0.219687 -0.326541 0.668904
v 0.320880 -0.326541 0.668904
v 0.219687 -0.372072 0.638481
v 0.320880 -0.372072 0.638481
v 0.219687 -0.402494 0.592951
v 0.320880 -0.402494 0.592951
v 0.219687 -0.413177 0.539244
v 0.320880 -0.413177 0.539244
v 0.219687 -0.402494 0.485536
v 0.320880 -0.402494 0.485536
v 0.219687 -0.372072 0.440006
v 0.320880 -0.372072 0.440006
v 0.219687 -0.326541 0.409583
v 0.320880 -0.326541 0.409583
v 0.219687 -0.272834 0.398900
v 0.320880 -0.272834 0.398900
v 0.219687 -0.219126 0.409583
v 0.320880 -0.219126 0.409583
v 0.219688 -0.173596 0.440006
v 0.320880 -0.173596 0.440006
v 0.219688 -0.143173 0.485536
v 0.320880 -0.143173 0.485536
v 0.288088 -0.135960 0.482549
v 0.252480 -0.135960 0.482548
v 0.288088 -0.168075 0.434485
v 0.252480 -0.168075 0.434485
v 0.288088 -0.216138 0.402369
v 0.252480 -0.216138 0.402369
v 0.288088 -0.272834 0.391092
v 0.252480 -0.272834 0.391092
v 0.288088 -0.329529 0.402369
v 0.252480 -0.329529 0.402369
v 0.288087 -0.377593 0.434485
v 0.252480 -0.377593 0.434485
v 0.288087 -0.409708 0.482549
v 0.252480 -0.409708 0.482548
v 0.288087 -0.420985 0.539244
v 0.252480 -0.420985 0.539244
v 0.288087 -0.409708 0.595939
v 0.252480 -0.409708 0.595939
v 0.288087 -0.377593 0.644003
v 0.252480 -0.377593 0.644003
v 0.288088 -0.329529 0.676118
v 0.252480 -0.329529 0.676118
v 0.288088 -0.272834 0.687395
v 0.252480 -0.272834 0.687395
v 0.288088 -0.216138 0.676118
v 0.252480 -0.216138 0.676118
v 0.288088 -0.168075 0.644003
v 0.252480 -0.168075 0.644003
v 0.288088 -0.135960 0.595939
v 0.252480 -0.135960 0.595939
v 0.252480 -0.124682 0.539244
v 0.288088 -0.124682 0.539244
v 0.288301 0.145139 0.216011
v 0.085073 0.203564 0.186044
v 0.094759 0.127119 0.229232
vn -0.0000 -0.0000 -1.0000
vn -0.0148 -0.7967 0.6042
vn -0.0159 -0.7938 0.6080
vn -0.0314 -0.7523 0.6581
vn -0.1126 0.4845 -0.8675
vn -0.2327 0.4542 -0.8600
vn -0.1851 0.6055 -0.7740
vn -0.0888 0.6273 -0.7737
vn -0.1492 -0.1929 -0.9698
vn -0.2984 -0.2032 -0.9326
vn -0.2873 0.0243 -0.9575
vn -0.1463 0.0401 -0.9884
vn -0.1463 -0.2474 -0.9578
vn -0.2875 -0.1954 -0.9376
vn -0.9419 0.3153 0.1160
vn -0.9750 0.1962 0.1047
vn -0.9879 0.1503 0.0386
vn -0.9834 0.1763 0.0424
vn -0.9836 0.0701 0.1664
vn -0.9433 0.3042 0.1327
vn -0.9799 0.1292 0.1521
vn -0.9925 0.1220 -0.0094
vn -0.9908 0.1341 -0.0177
vn -1.0000 -0.0000 -0.0000
vn -0.9551 0.2960 0.0078
vn -0.9179 0.3967 -0.0090
vn -0.9052 0.4250 0.0085
vn -0.9548 0.2972 -0.0012
vn -0.9459 0.3172 -0.0678
vn -0.9525 0.3018 -0.0408
vn -0.9938 0.1108 -0.0007
vn -0.9929 0.1188 -0.0029
vn -0.9936 0.1127 -0.0003
vn -1.0000 0.0015 -0.0015
vn -1.0000 0.0054 -0.0026
vn -0.9610 0.2766 -0.0031
vn -0.9602 0.2793 0.0020
vn -0.9909 0.1344 0.0071
vn -0.9988 0.0480 0.0088
vn -0.9568 0.2907 0.0017
vn -1.0000 -0.0000 -0.0032
vn -1.0000 0.0004 -0.0033
vn -0.9894 0.0146 0.1446
vn -0.9951 0.0114 0.0980
vn -0.1421 -0.1849 -0.9724
vn -0.2743 -0.1094 -0.9554
vn -0.1422 0.0854 0.9861
vn -0.0703 0.0678 0.9952
vn -0.0823 0.0515 0.9953
vn -0.1625 0.0837 0.9832
vn -0.0000 -0.2594 -0.9658
vn -0.0000 -0.2799 -0.9600
vn -0.0755 0.9971 0.0070
vn -0.0793 0.9952 0.0580
vn -0.0328 0.9977 0.0597
vn -0.0270 0.9996 0.0035
vn -0.0239 -0.9991 0.0346
vn -0.0081 -0.9998 0.0199
vn -0.0085 -0.9993 0.0374
vn -0.0567 0.9977 -0.0384
vn -0.0181 0.9988 -0.0445
vn -0.0247 0.9970 -0.0731
vn -0.0357 0.9975 -0.0609
vn -0.0106 0.9977 -0.0672
vn -0.0063 0.9968 -0.0792
vn 0.0369 -0.9980 -0.0519
vn 0.0170 -0.9995 -0.0247
vn 0.0122 -0.9987 -0.0491
vn -0.0000 -0.1885 -0.9821
vn -0.1012 0.1357 0.9856
vn -0.1998 0.1512 0.9681
vn -0.0000 0.0417 -0.9991
vn -0.0705 0.9948 0.0729
vn -0.0639 0.9955 0.0701
vn -0.0283 0.9968 0.0741
vn -0.0321 0.9965 0.0766
vn -0.0000 0.4956 -0.8686
vn -0.0000 0.6421 -0.7666
vn -0.0000 -0.8327 0.5537
vn -0.1085 0.2341 0.9661
vn -0.2165 0.2325 0.9482
vn -0.0400 0.9970 0.0669
vn -0.0662 0.9958 0.0637
vn -0.0308 0.9978 0.0585
vn -0.0189 0.9982 0.0576
vn -0.0124 0.9975 0.0701
vn -0.0061 0.9984 0.0559
vn -0.0000 -1.0000 0.0084
vn -0.0000 -0.9999 0.0168
vn 0.0018 -0.9980 0.0639
vn 0.0011 -0.9992 0.0410
vn -0.9659 0.0223 0.2579
vn -0.9908 0.1059 0.0838
vn -0.9911 0.1307 0.0242
vn 0.0035 -0.9941 0.1088
vn -0.8723 0.4814 -0.0859
vn -0.9000 0.4271 -0.0874
vn -0.9212 0.3891 -0.0070
vn -0.8963 0.4434 -0.0081
vn -0.8775 0.4788 0.0251
vn -0.8690 0.4946 0.0144
vn -0.1354 0.2550 -0.9574
vn -0.0000 0.2464 -0.9692
vn -0.8961 0.4438 0.0063
vn -0.9207 0.3904 0.0049
vn -0.9138 0.4059 0.0152
vn -0.8900 0.4555 0.0206
vn -0.8298 0.5260 -0.1865
vn -0.8869 0.4403 -0.1400
vn -0.2685 0.2476 -0.9309
vn -0.3801 0.9178 -0.1150
vn -0.0000 0.9934 -0.1150
vn -0.0000 0.9728 -0.2316
vn -0.3723 0.8988 -0.2316
vn -0.7024 0.7024 -0.1150
vn -0.6879 0.6879 -0.2316
vn -0.9178 0.3801 -0.1150
vn -0.8988 0.3723 -0.2316
vn -0.9934 -0.0000 -0.1150
vn -0.9728 -0.0000 -0.2316
vn -0.9178 -0.3801 -0.1150
vn -0.8988 -0.3723 -0.2316
vn -0.7024 -0.7024 -0.1150
vn -0.6879 -0.6879 -0.2316
vn -0.3801 -0.9178 -0.1150
vn -0.3723 -0.8988 -0.2316
vn -0.0000 -0.9934 -0.1150
vn -0.0000 -0.9728 -0.2316
vn 0.1150 -0.9934 -0.0000
vn 0.1150 -0.9178 -0.3801
vn 0.2316 -0.8988 -0.3723
vn 0.2316 -0.9728 -0.0000
vn 0.1150 -0.7024 -0.7024
vn 0.2316 -0.6879 -0.6879
vn 0.1150 -0.3801 -0.9178
vn 0.2316 -0.3723 -0.8988
vn 0.1150 -0.0000 -0.9934
vn 0.2316 -0.0000 -0.9728
vn 0.1150 0.3801 -0.9178
vn 0.2316 0.3723 -0.8988
vn 0.1150 0.7024 -0.7024
vn 0.2316 0.6879 -0.6879
vn 0.1150 0.9178 -0.3801
vn 0.2316 0.8988 -0.3723
vn 0.1150 0.9934 -0.0000
vn 0.2316 0.9728 -0.0000
vn 0.1150 0.9178 0.3801
vn 0.2316 0.8988 0.3723
vn 0.1150 0.7024 0.7024
vn 0.2316 0.6879 0.6879
vn 0.1150 0.3801 0.9178
vn 0.2316 0.3723 0.8988
vn 0.1150 -0.0000 0.9934
vn 0.2316 -0.0000 0.9728
vn 0.1150 -0.3801 0.9178
vn 0.2316 -0.3723 0.8988
vn 0.1150 -0.7024 0.7024
vn 0.2316 -0.6879 0.6879
vn 1.0000 -0.0000 -0.0000
vn 0.1150 -0.9178 0.3801
vn 0.2316 -0.8988 0.3723
vn -0.0000 -0.9728 0.2316
vn -0.3723 -0.8988 0.2316
vn -0.3801 -0.9178 0.1150
vn -0.0000 -0.9934 0.1150
vn -0.6879 -0.6879 0.2316
vn -0.7024 -0.7024 0.1150
vn -0.8988 -0.3723 0.2316
vn -0.9178 -0.3801 0.1150
vn -0.9728 -0.0000 0.2316
vn -0.9934 -0.0000 0.1150
vn -0.8988 0.3723 0.2316
vn -0.9178 0.3801 0.1150
vn -0.6879 0.6879 0.2316
vn -0.7024 0.7024 0.1150
vn -0.3723 0.8988 0.2316
vn -0.3801 0.9178 0.1150
vn -0.0000 0.9728 0.2316
vn -0.0000 0.9934 0.1150
vn -0.2316 -0.9728 -0.0000
vn -0.2316 -0.8988 -0.3723
vn -0.1150 -0.9178 -0.3801
vn -0.1150 -0.9934 -0.0000
vn -0.2316 -0.6879 -0.6879
vn -0.1150 -0.7024 -0.7024
vn -0.2316 -0.3723 -0.8988
vn -0.1150 -0.3801 -0.9178
vn -0.2316 -0.0000 -0.9728
vn -0.1150 -0.0000 -0.9934
vn -0.2316 0.3723 -0.8988
vn -0.1150 0.3801 -0.9178
vn -0.2316 0.6879 -0.6879
vn -0.1150 0.7024 -0.7024
vn -0.2316 0.8988 -0.3723
vn -0.1150 0.9178 -0.3801
vn -0.2316 0.9728 -0.0000
vn -0.1150 0.9934 -0.0000
vn -0.2316 0.8988 0.3723
vn -0.1150 0.9178 0.3801
vn -0.2316 0.6879 0.6879
vn -0.1150 0.7024 0.7024
vn -0.2316 0.3723 0.8988
vn -0.1150 0.3801 0.9178
vn -0.2316 -0.0000 0.9728
vn -0.1150 -0.0000 0.9934
vn -0.2316 -0.3723 0.8988
vn -0.1150 -0.3801 0.9178
vn -0.2316 -0.6879 0.6879
vn -0.1150 -0.7024 0.7024
vn -0.2316 -0.8988 0.3723
vn -0.1150 -0.9178 0.3801
vn -0.0000 0.9970 0.0775
vn -0.0000 0.9967 0.0806
vn -0.0000 0.9987 -0.0511
vn -0.0000 0.9973 -0.0729
vn -0.0000 -0.9989 -0.0477
vn -0.0000 -0.9989 -0.0470
vn -0.0000 -0.9992 0.0389
vn -0.0000 -0.9996 0.0265
vn -0.0000 0.9981 0.0611
vn -0.0000 0.9988 0.0480
vn -0.0000 0.9991 0.0421
vn -0.0000 0.9985 0.0539
vn -0.0000 0.1116 0.9938
vn -0.0000 0.2330 0.9725
vn -0.0000 0.0194 0.9998
vn -0.0000 -1.0000 -0.0014
vn -0.0000 0.9964 -0.0845
vn -0.0000 -0.9999 0.0124
vn -0.0000 1.0000 -0.0014
vn -0.0000 0.0503 0.9987
vn -0.0037 0.5210 0.8536
vn 0.0117 0.5198 0.8542
vn -0.0000 0.4919 0.8707
vn -0.0616 0.5474 0.8346
vn -0.0429 0.5379 0.8419
vn -0.0050 0.5489 0.8358
vn -0.0729 0.5746 0.8152
vn -0.1286 0.6032 0.7872
vn 0.0218 0.5435 0.8391
vn 0.0148 -0.7967 0.6042
vn 0.0314 -0.7523 0.6581
vn 0.0159 -0.7938 0.6080
vn 0.1126 0.4845 -0.8675
vn 0.0888 0.6273 -0.7737
vn 0.1851 0.6055 -0.7740
vn 0.2327 0.4542 -0.8600
vn 0.1492 -0.1929 -0.9698
vn 0.1463 0.0401 -0.9884
vn 0.2873 0.0243 -0.9575
vn 0.2984 -0.2032 -0.9326
vn 0.1463 -0.2474 -0.9578
vn 0.2875 -0.1954 -0.9376
vn 0.9419 0.3153 0.1160
vn 0.9834 0.1763 0.0424
vn 0.9879 0.1503 0.0386
vn 0.9750 0.1962 0.1047
vn 0.9836 0.0701 0.1664
vn 0.9799 0.1292 0.1521
vn 0.9433 0.3042 0.1327
vn 0.9925 0.1220 -0.0094
vn 0.9908 0.1341 -0.0177
vn 0.9551 0.2960 0.0078
vn 0.9548 0.2972 -0.0012
vn 0.9052 0.4250 0.0085
vn 0.9179 0.3967 -0.0090
vn 0.9459 0.3172 -0.0678
vn 0.9525 0.3018 -0.0408
vn 0.9938 0.1108 -0.0007
vn 0.9929 0.1188 -0.0029
vn 1.0000 0.0054 -0.0026
vn 1.0000 0.0015 -0.0015
vn 0.9936 0.1127 -0.0003
vn 0.9610 0.2766 -0.0031
vn 0.9602 0.2793 0.0020
vn 0.9909 0.1344 0.0071
vn 0.9988 0.0480 0.0088
vn 0.9568 0.2907 0.0017
vn 1.0000 -0.0000 -0.0032
vn 1.0000 0.0004 -0.0033
vn 0.9894 0.0146 0.1446
vn 0.9951 0.0114 0.0980
vn 0.1421 -0.1849 -0.9724
vn 0.2743 -0.1094 -0.9554
vn 0.1422 0.0854 0.9861
vn 0.1625 0.0837 0.9832
vn 0.0823 0.0515 0.9953
vn 0.0703 0.0678 0.9952
vn 0.0755 0.9971 0.0070
vn 0.0270 0.9996 0.0035
vn 0.0328 0.9977 0.0597
vn 0.0793 0.9952 0.0580
vn 0.0239 -0.9991 0.0346
vn 0.0085 -0.9993 0.0374
vn 0.0081 -0.9998 0.0199
vn 0.0567 0.9977 -0.0384
vn 0.0181 0.9988 -0.0445
vn 0.0247 0.9970 -0.0731
vn 0.0063 0.9968 -0.0792
vn 0.0106 0.9977 -0.0672
vn 0.0357 0.9975 -0.0609
vn -0.0369 -0.9980 -0.0519
vn -0.0122 -0.9987 -0.0491
vn -0.0170 -0.9995 -0.0247
vn 0.1998 0.1512 0.9681
vn 0.1012 0.1357 0.9856
vn 0.0705 0.9948 0.0729
vn 0.0321 0.9965 0.0766
vn 0.0283 0.9968 0.0741
vn 0.0639 0.9955 0.0701
vn 0.2165 0.2325 0.9482
vn 0.1085 0.2341 0.9661
vn 0.0400 0.9970 0.0669
vn 0.0189 0.9982 0.0576
vn 0.0308 0.9978 0.0585
vn 0.0662 0.9958 0.0637
vn 0.0124 0.9975 0.0701
vn 0.0061 0.9984 0.0559
vn -0.0011 -0.9992 0.0410
vn -0.0018 -0.9980 0.0639
vn 0.9659 0.0223 0.2579
vn 0.9908 0.1059 0.0838
vn 0.9911 0.1307 0.0242
vn -0.0035 -0.9941 0.1088
vn 0.8723 0.4814 -0.0859
vn 0.8963 0.4434 -0.0081
vn 0.9212 0.3891 -0.0070
vn 0.9000 0.4271 -0.0874
vn 0.8775 0.4788 0.0251
vn 0.8690 0.4946 0.0144
vn 0.1354 0.2550 -0.9574
vn 0.8961 0.4438 0.0063
vn 0.8900 0.4555 0.0206
vn 0.9138 0.4059 0.0152
vn 0.9207 0.3904 0.0049
vn 0.8298 0.5260 -0.1865
vn 0.8869 0.4403 -0.1400
vn 0.2685 0.2476 -0.9309
vn 0.3801 0.9178 -0.1150
vn 0.3723 0.8988 -0.2316
vn 0.7024 0.7024 -0.1150
vn 0.6879 0.6879 -0.2316
vn 0.9178 0.3801 -0.1150
vn 0.8988 0.3723 -0.2316
vn 0.9934 -0.0000 -0.1150
vn 0.9728 -0.0000 -0.2316
vn 0.9178 -0.3801 -0.1150
vn 0.8988 -0.3723 -0.2316
vn 0.7024 -0.7024 -0.1150
vn 0.6879 -0.6879 -0.2316
vn 0.3801 -0.9178 -0.1150
vn 0.3723 -0.8988 -0.2316
vn 0.3801 -0.9178 0.1150
vn 0.3723 -0.8988 0.2316
vn 0.7024 -0.7024 0.1150
vn 0.6879 -0.6879 0.2316
vn 0.9178 -0.3801 0.1150
vn 0.8988 -0.3723 0.2316
vn 0.9934 -0.0000 0.1150
vn 0.9728 -0.0000 0.2316
vn 0.9178 0.3801 0.1150
vn 0.8988 0.3723 0.2316
vn 0.7024 0.7024 0.1150
vn 0.6879 0.6879 0.2316
vn 0.3801 0.9178 0.1150
vn 0.3723 0.8988 0.2316
vn 0.0037 0.5210 0.8536
vn -0.0117 0.5198 0.8542
vn 0.0616 0.5474 0.8346
vn 0.0429 0.5379 0.8419
vn 0.0050 0.5489 0.8358
vn 0.0729 0.5746 0.8152
vn 0.1286 0.6032 0.7872
vn -0.0218 0.5435 0.8391
vt 0.336697 0.366574
vt 0.308112 0.375100
vt 0.279528 0.366574
vt 0.255295 0.342294
vt 0.239103 0.305956
vt 0.233417 0.263092
vt 0.239103 0.220229
vt 0.255295 0.183891
vt 0.279528 0.159611
vt 0.308112 0.151085
vt 0.336697 0.159611
vt 0.360929 0.183891
vt 0.377121 0.220229
vt 0.382807 0.263092
vt 0.377121 0.305956
vt 0.360929 0.342294
vt 0.815886 0.732484
vt 0.814120 0.746529
vt 0.735961 0.744753
vt 0.733833 0.733607
vt 0.373783 0.633864
vt 0.424517 0.634089
vt 0.421759 0.673104
vt 0.357252 0.671352
vt 0.183047 0.425652
vt 0.214894 0.422534
vt 0.205456 0.523331
vt 0.178234 0.522547
vt 0.193727 0.374763
vt 0.227009 0.366681
vt 0.761693 0.514002
vt 0.825578 0.437112
vt 0.857167 0.439543
vt 0.848100 0.504347
vt 0.855497 0.377980
vt 0.796196 0.447548
vt 0.841523 0.376363
vt 0.259498 0.524441
vt 0.282353 0.404694
vt 0.607812 0.593597
vt 0.588257 0.630915
vt 0.554937 0.632944
vt 0.577277 0.580273
vt 0.209211 0.576505
vt 0.257213 0.578990
vt 0.321450 0.525331
vt 0.332828 0.413667
vt 0.257046 0.360357
vt 0.541222 0.526809
vt 0.382907 0.525177
vt 0.383314 0.406776
vt 0.691266 0.419632
vt 0.318233 0.581050
vt 0.380842 0.580818
vt 0.597434 0.530381
vt 0.714106 0.451283
vt 0.523962 0.578501
vt 0.406675 0.361182
vt 0.672869 0.375035
vt 0.404903 0.312942
vt 0.666968 0.330010
vt 0.225206 0.320165
vt 0.259688 0.312942
vt 0.857661 0.332145
vt 0.844291 0.327996
vt 0.203063 0.322642
vt 0.813385 0.776511
vt 0.735572 0.772804
vt 0.188391 0.317045
vt 0.182763 0.370570
vt 0.525468 0.382081
vt 0.484509 0.381253
vt 0.484061 0.416245
vt 0.524644 0.417065
vt 0.395603 0.307084
vt 0.664730 0.324611
vt 0.543338 0.382442
vt 0.542326 0.417422
vt 0.572842 0.387513
vt 0.561113 0.382801
vt 0.560349 0.417786
vt 0.575778 0.418098
vt 0.211064 0.314501
vt 0.249592 0.316916
vt 0.246476 0.307084
vt 0.175146 0.422831
vt 0.175146 0.422831
vt 0.812794 0.803680
vt 0.738498 0.801245
vt 0.168606 0.522336
vt 0.472993 0.381323
vt 0.463846 0.381441
vt 0.458423 0.415727
vt 0.469608 0.415953
vt 0.332402 0.626714
vt 0.331221 0.671100
vt 0.852329 0.732484
vt 0.852329 0.746529
vt 0.812728 0.847159
vt 0.745062 0.842058
vt 0.501793 0.473805
vt 0.462695 0.464959
vt 0.458966 0.408226
vt 0.509638 0.416918
vt 0.557665 0.489727
vt 0.564423 0.426315
vt 0.852329 0.732262
vt 0.816206 0.732262
vt 0.865809 0.349844
vt 0.861888 0.394384
vt 0.637670 0.531997
vt 0.732792 0.730994
vt 0.273308 0.690431
vt 0.260366 0.636973
vt 0.318520 0.639738
vt 0.325602 0.693310
vt 0.532551 0.683576
vt 0.559451 0.681273
vt 0.332402 0.544977
vt 0.367377 0.544977
vt 0.365338 0.585011
vt 0.332402 0.584421
vt 0.378177 0.694102
vt 0.378435 0.639898
vt 0.516433 0.633990
vt 0.498678 0.686639
vt 0.238684 0.687950
vt 0.218839 0.634093
vt 0.437328 0.545553
vt 0.424251 0.587018
vt 0.138246 0.565659
vt 0.138246 0.572321
vt 0.125327 0.567708
vt 0.125327 0.561397
vt 0.138246 0.546687
vt 0.125327 0.543425
vt 0.138246 0.518293
vt 0.125327 0.516528
vt 0.138246 0.484800
vt 0.125327 0.484800
vt 0.138246 0.451308
vt 0.125327 0.453073
vt 0.138246 0.422914
vt 0.125328 0.426176
vt 0.138246 0.403942
vt 0.125328 0.408204
vt 0.138246 0.397280
vt 0.125328 0.401893
vt 0.138246 0.422914
vt 0.125328 0.426176
vt 0.165193 0.567708
vt 0.165193 0.561397
vt 0.165193 0.543425
vt 0.165193 0.516528
vt 0.165193 0.484800
vt 0.165193 0.453073
vt 0.165193 0.426176
vt 0.165193 0.408204
vt 0.165193 0.401893
vt 0.165193 0.543425
vt 0.152274 0.403942
vt 0.152274 0.397280
vt 0.152274 0.422914
vt 0.152274 0.451308
vt 0.152274 0.484800
vt 0.152274 0.518293
vt 0.152274 0.546687
vt 0.152274 0.565659
vt 0.152274 0.572321
vt 0.458266 0.433225
vt 0.469466 0.433451
vt 0.542255 0.434921
vt 0.560247 0.435285
vt 0.319132 0.307084
vt 0.747843 0.324611
vt 0.483948 0.433743
vt 0.512110 0.384514
vt 0.566894 0.393911
vt 0.461438 0.375822
vt 0.852329 0.803680
vt 0.852329 0.847159
vt 0.852329 0.776511
vt 0.843953 0.324611
vt 0.575647 0.435596
vt 0.524590 0.434564
vt 0.820985 0.890278
vt 0.819793 0.857642
vt 0.852329 0.857642
vt 0.852329 0.890278
vt 0.825260 0.956481
vt 0.824546 0.910665
vt 0.854042 0.910665
vt 0.852329 0.956481
vt 0.756968 0.898507
vt 0.761569 0.908859
vt 0.772056 0.953272
vt 0.755797 0.859472
vt 0.888773 0.732484
vt 0.970825 0.733607
vt 0.968698 0.744753
vt 0.890539 0.746529
vt 0.969087 0.772804
vt 0.891274 0.776511
vt 0.966160 0.801245
vt 0.891864 0.803680
vt 0.959597 0.842058
vt 0.891931 0.847159
vt 0.888452 0.732262
vt 0.971867 0.730994
vt 0.883673 0.890278
vt 0.884865 0.857642
vt 0.879399 0.956481
vt 0.883537 0.910665
vt 0.947691 0.898507
vt 0.946515 0.908859
vt 0.932602 0.953272
vt 0.948862 0.859472
s 1
usemtl mat1
f 16/1/1 17/2/1 1/3/1 2/4/1 3/5/1 4/6/1 5/7/1 6/8/1 7/9/1 8/10/1 10/11/1 11/12/1 12/13/1 13/14/1 14/15/1 15/16/1
f 102/17/2 82/18/3 54/19/4 99/20/4
f 123/21/5 115/22/6 51/23/7 83/24/8
f 89/25/9 60/26/10 58/27/11 87/28/12
f 96/29/13 74/30/14 60/26/10 89/25/9
f 98/31/15 100/32/16 59/33/17 53/34/18
f 101/35/19 100/32/16 61/36/20 76/37/21
f 64/38/22 58/27/23 60/26/24 65/39/24
f 285/40/25 114/41/26 125/42/27 126/43/28
f 116/44/29 58/27/23 64/38/22 118/45/30
f 109/46/31 64/38/22 65/39/24 111/47/24
f 74/30/24 77/48/24 65/39/24 60/26/24
f 73/49/32 69/50/33 67/51/34 71/52/35
f 128/53/36 109/46/31 69/50/33 120/54/37
f 106/55/38 73/49/32 71/52/35 105/56/39
f 120/54/37 69/50/33 73/49/32 122/57/40
f 78/58/41 79/59/41 71/52/35 67/51/34
f 68/60/42 72/61/42 79/59/41 78/58/41
f 52/62/24 63/63/24 77/48/24 74/30/24
f 99/64/43 101/35/19 76/37/21 57/65/44
f 80/66/45 52/62/46 74/30/14 96/29/13
f 54/19/47 82/18/48 97/67/49 75/68/50
f 23/69/51 80/69/45 96/70/13 39/70/52
f 66/71/53 70/72/54 95/73/55 93/74/56
f 68/75/57 92/75/58 94/76/59 72/76/57
f 110/77/60 66/71/53 93/74/56 112/78/61
f 51/79/62 62/80/63 91/81/64 83/82/65
f 52/83/66 80/69/67 90/84/68 63/85/66
f 39/70/52 96/70/13 89/86/9 32/87/69
f 75/68/50 97/67/49 88/88/70 59/89/71
f 32/87/69 89/86/9 87/90/12 30/90/72
f 104/91/73 55/92/74 84/93/75 108/94/76
f 48/95/77 123/21/5 83/24/8 26/96/78
f 42/97/79 25/98/79 82/18/3 102/17/2
f 59/89/71 88/88/70 81/99/80 53/100/81
f 98/101/82 53/102/83 81/103/84 103/104/85
f 56/105/86 98/101/82 103/104/85 86/106/87
f 28/107/88 42/97/89 102/17/90 85/108/91
f 54/109/92 75/110/93 101/35/19 99/64/43
f 75/110/93 59/33/17 100/32/16 101/35/19
f 56/111/94 61/36/20 100/32/16 98/31/15
f 85/108/91 102/17/90 99/20/95 57/112/95
f 70/72/54 104/91/73 108/94/76 95/73/55
f 56/111/94 106/55/38 105/56/39 61/36/20
f 106/55/38 56/111/94 285/40/25 126/43/28
f 62/80/63 110/77/60 112/78/61 91/81/64
f 118/45/30 64/38/22 109/46/31 128/53/36
f 69/50/33 109/46/31 111/47/24 67/51/34
f 62/113/96 117/114/97 127/115/98 110/116/99
f 117/114/97 118/45/30 128/53/36 127/115/98
f 104/117/100 125/42/27 114/41/26 55/118/101
f 30/119/72 87/120/12 124/121/102 47/122/103
f 47/122/103 124/121/102 123/21/5 48/95/77
f 66/123/104 119/124/105 121/125/106 70/126/107
f 119/124/105 120/54/37 122/57/40 121/125/106
f 110/116/99 127/115/98 119/124/105 66/123/104
f 127/115/98 128/53/36 120/54/37 119/124/105
f 51/127/108 115/128/109 117/114/97 62/113/96
f 115/128/109 116/44/29 118/45/30 117/114/97
f 87/120/12 58/129/11 116/130/110 124/121/102
f 124/121/102 116/130/110 115/22/6 123/21/5
f 175/131/111 22/132/112 17/133/113 129/134/114
f 177/135/115 175/131/111 129/134/114 131/136/116
f 179/137/117 177/135/115 131/136/116 133/138/118
f 181/139/119 179/137/117 133/138/118 135/140/120
f 183/141/121 181/139/119 135/140/120 137/142/122
f 185/143/123 183/141/121 137/142/122 139/144/124
f 187/145/125 185/143/123 139/144/124 141/146/126
f 19/147/127 187/145/125 141/146/126 8/148/128
f 220/132/129 217/131/130 146/134/131 144/133/132
f 217/131/130 215/135/133 148/136/134 146/134/131
f 215/135/133 213/137/135 150/138/136 148/136/134
f 213/137/135 211/139/137 152/140/138 150/138/136
f 211/139/137 209/141/139 154/142/140 152/140/138
f 209/141/139 207/149/141 156/150/142 154/142/140
f 207/149/141 205/145/143 158/146/144 156/150/142
f 205/145/143 203/147/145 160/148/146 158/146/144
f 203/147/145 201/145/147 162/146/148 160/148/146
f 201/145/147 199/143/149 164/144/150 162/146/148
f 199/143/149 197/141/151 166/142/152 164/144/150
f 197/141/151 195/139/153 168/140/154 166/142/152
f 195/139/153 193/137/155 170/138/156 168/140/154
f 193/137/155 191/135/157 172/136/158 170/138/156
f 146/1/159 148/16/159 150/15/159 152/14/159 154/13/159 156/12/159 158/11/159 160/10/159 162/9/159 164/8/159 166/7/159 168/6/159 170/5/159 172/4/159 174/3/159 144/2/159
f 191/135/157 189/131/160 174/134/161 172/136/158
f 189/131/160 220/132/129 144/133/132 174/134/161
f 143/151/24 173/152/24 171/153/24 169/154/24 167/155/24 165/156/24 163/157/24 161/158/24 159/159/24 157/158/24 155/157/24 153/156/24 151/155/24 149/154/24 147/160/24 145/152/24
f 9/159/162 142/158/163 188/161/164 20/162/165
f 20/162/165 188/161/164 187/145/125 19/147/127
f 142/158/163 140/157/166 186/163/167 188/161/164
f 188/161/164 186/163/167 185/143/123 187/145/125
f 140/157/166 138/156/168 184/164/169 186/163/167
f 186/163/167 184/164/169 183/141/121 185/143/123
f 138/156/168 136/155/170 182/165/171 184/164/169
f 184/164/169 182/165/171 181/139/119 183/141/121
f 136/155/170 134/154/172 180/166/173 182/165/171
f 182/165/171 180/166/173 179/137/117 181/139/119
f 134/154/172 132/153/174 178/167/175 180/166/173
f 180/166/173 178/167/175 177/135/115 179/137/117
f 132/153/174 130/152/176 176/168/177 178/167/175
f 178/167/175 176/168/177 175/131/111 177/135/115
f 130/152/176 18/151/178 21/169/179 176/168/177
f 176/168/177 21/169/179 22/132/112 175/131/111
f 143/151/180 145/152/181 218/168/182 219/169/183
f 219/169/183 218/168/182 217/131/130 220/132/129
f 145/152/181 147/160/184 216/167/185 218/168/182
f 218/168/182 216/167/185 215/135/133 217/131/130
f 147/160/184 149/154/186 214/166/187 216/167/185
f 216/167/185 214/166/187 213/137/135 215/135/133
f 149/154/186 151/155/188 212/165/189 214/166/187
f 214/166/187 212/165/189 211/139/137 213/137/135
f 151/155/188 153/156/190 210/164/191 212/165/189
f 212/165/189 210/164/191 209/141/139 211/139/137
f 153/156/190 155/157/192 208/163/193 210/164/191
f 210/164/191 208/163/193 207/149/141 209/141/139
f 155/157/192 157/158/194 206/161/195 208/163/193
f 208/163/193 206/161/195 205/145/143 207/149/141
f 157/158/194 159/159/196 204/162/197 206/161/195
f 206/161/195 204/162/197 203/147/145 205/145/143
f 159/159/196 161/158/198 202/161/199 204/162/197
f 204/162/197 202/161/199 201/145/147 203/147/145
f 161/158/198 163/157/200 200/163/201 202/161/199
f 202/161/199 200/163/201 199/143/149 201/145/147
f 163/157/200 165/156/202 198/164/203 200/163/201
f 200/163/201 198/164/203 197/141/151 199/143/149
f 165/156/202 167/155/204 196/165/205 198/164/203
f 198/164/203 196/165/205 195/139/153 197/141/151
f 167/155/204 169/154/206 194/166/207 196/165/205
f 196/165/205 194/166/207 193/137/155 195/139/153
f 169/154/206 171/153/208 192/167/209 194/166/207
f 194/166/207 192/167/209 191/135/157 193/137/155
f 171/153/208 173/152/210 190/168/211 192/167/209
f 192/167/209 190/168/211 189/131/160 191/135/157
f 173/152/210 143/151/180 219/169/183 190/168/211
f 190/168/211 219/169/183 220/132/129 189/131/160
f 284/132/129 281/131/130 224/134/131 222/133/132
f 281/131/130 279/135/133 226/136/134 224/134/131
f 279/135/133 277/137/135 228/138/136 226/136/134
f 277/137/135 275/139/137 230/140/138 228/138/136
f 275/139/137 273/141/139 232/142/140 230/140/138
f 273/141/139 271/149/141 234/150/142 232/142/140
f 271/149/141 269/145/143 236/146/144 234/150/142
f 269/145/143 267/147/145 238/148/146 236/146/144
f 267/147/145 265/145/147 240/146/148 238/148/146
f 265/145/147 263/143/149 242/144/150 240/146/148
f 263/143/149 261/141/151 244/142/152 242/144/150
f 261/141/151 259/139/153 246/140/154 244/142/152
f 259/139/153 257/137/155 248/138/156 246/140/154
f 257/137/155 255/135/157 250/136/158 248/138/156
f 224/1/159 226/16/159 228/15/159 230/14/159 232/13/159 234/12/159 236/11/159 238/10/159 240/9/159 242/8/159 244/7/159 246/6/159 248/5/159 250/4/159 252/3/159 222/2/159
f 255/135/157 253/131/160 252/134/161 250/136/158
f 253/131/160 284/132/129 222/133/132 252/134/161
f 221/151/24 251/152/24 249/153/24 247/154/24 245/155/24 243/156/24 241/157/24 239/158/24 237/159/24 235/158/24 233/157/24 231/156/24 229/155/24 227/154/24 225/160/24 223/152/24
f 221/151/180 223/152/181 282/168/182 283/169/183
f 283/169/183 282/168/182 281/131/130 284/132/129
f 223/152/181 225/160/184 280/167/185 282/168/182
f 282/168/182 280/167/185 279/135/133 281/131/130
f 225/160/184 227/154/186 278/166/187 280/167/185
f 280/167/185 278/166/187 277/137/135 279/135/133
f 227/154/186 229/155/188 276/165/189 278/166/187
f 278/166/187 276/165/189 275/139/137 277/137/135
f 229/155/188 231/156/190 274/164/191 276/165/189
f 276/165/189 274/164/191 273/141/139 275/139/137
f 231/156/190 233/157/192 272/163/193 274/164/191
f 274/164/191 272/163/193 271/149/141 273/141/139
f 233/157/192 235/158/194 270/161/195 272/163/193
f 272/163/193 270/161/195 269/145/143 271/149/141
f 235/158/194 237/159/196 268/162/197 270/161/195
f 270/161/195 268/162/197 267/147/145 269/145/143
f 237/159/196 239/158/198 266/161/199 268/162/197
f 268/162/197 266/161/199 265/145/147 267/147/145
f 239/158/198 241/157/200 264/163/201 266/161/199
f 266/161/199 264/163/201 263/143/149 265/145/147
f 241/157/200 243/156/202 262/164/203 264/163/201
f 264/163/201 262/164/203 261/141/151 263/143/149
f 243/156/202 245/155/204 260/165/205 262/164/203
f 262/164/203 260/165/205 259/139/153 261/141/151
f 245/155/204 247/154/206 258/166/207 260/165/205
f 260/165/205 258/166/207 257/137/155 259/139/153
f 247/154/206 249/153/208 256/167/209 258/166/207
f 258/166/207 256/167/209 255/135/157 257/137/155
f 249/153/208 251/152/210 254/168/211 256/167/209
f 256/167/209 254/168/211 253/131/160 255/135/157
f 251/152/210 221/151/180 283/169/183 254/168/211
f 254/168/211 283/169/183 284/132/129 253/131/160
f 84/93/75 27/170/212 43/171/213 108/94/76
f 91/81/64 112/78/61 46/172/214 34/173/215
f 90/84/68 33/84/216 45/174/217 113/174/217
f 94/76/59 37/76/218 44/175/219 107/175/219
f 95/73/55 108/94/76 43/171/213 38/176/220
f 86/106/87 103/104/85 41/177/221 29/178/222
f 103/104/85 81/103/84 24/179/223 41/177/221
f 88/88/70 31/180/224 24/181/225 81/99/80
f 97/67/49 40/182/226 31/180/224 88/88/70
f 107/175/219 44/175/219 28/183/88 85/183/91
f 80/69/67 23/69/227 33/84/216 90/84/68
f 83/82/65 91/81/64 34/173/215 26/184/228
f 113/174/217 45/174/217 35/75/229 92/75/58
f 112/78/61 93/74/56 36/185/230 46/172/214
f 92/75/58 35/75/229 37/76/218 94/76/59
f 93/74/56 95/73/55 38/176/220 36/185/230
f 82/18/48 25/98/231 40/182/226 97/67/49
f 287/186/232 86/187/233 29/188/234 50/189/234
f 84/190/235 286/191/236 49/192/234 27/193/234
f 286/191/236 287/186/232 50/189/234 49/192/234
f 285/194/237 287/186/232 286/191/236 114/195/238
f 84/190/235 55/196/239 114/195/238 286/191/236
f 86/187/233 287/186/232 285/194/237 56/197/240
f 104/117/100 70/126/107 121/125/106 125/42/27
f 122/57/40 126/43/28 125/42/27 121/125/106
f 106/55/38 126/43/28 122/57/40 73/49/32
f 301/1/1 300/16/1 299/15/1 298/14/1 297/13/1 296/12/1 295/11/1 8/10/1 294/9/1 293/8/1 292/7/1 291/6/1 290/5/1 289/4/1 288/3/1 17/2/1
f 353/198/241 350/199/242 305/200/242 333/201/243
f 374/21/244 334/24/245 302/23/246 366/22/247
f 340/25/248 338/28/249 309/27/250 311/26/251
f 347/29/252 340/25/248 311/26/251 325/30/253
f 349/31/254 304/34/255 310/33/256 351/32/257
f 352/35/258 327/37/259 312/36/260 351/32/257
f 315/38/261 316/39/159 311/26/159 309/27/262
f 536/40/263 377/43/264 376/42/265 365/41/266
f 367/44/267 369/45/268 315/38/261 309/27/262
f 360/46/269 362/47/159 316/39/159 315/38/261
f 325/30/159 311/26/159 316/39/159 328/48/159
f 324/49/270 322/52/271 318/51/272 320/50/273
f 379/53/274 371/54/275 320/50/273 360/46/269
f 357/55/276 356/56/277 322/52/271 324/49/270
f 371/54/275 373/57/278 324/49/270 320/50/273
f 329/58/279 318/51/272 322/52/271 330/59/279
f 319/60/280 329/58/279 330/59/279 323/61/280
f 303/62/159 325/30/159 328/48/159 314/63/159
f 350/64/281 308/65/282 327/37/259 352/35/258
f 331/66/283 347/29/252 325/30/253 303/62/284
f 305/200/285 326/202/286 348/203/287 333/201/288
f 23/69/51 39/70/52 347/70/252 331/69/283
f 317/71/289 344/74/290 346/73/291 321/72/292
f 319/75/293 323/76/293 345/76/294 343/75/295
f 361/77/296 363/78/297 344/74/290 317/71/289
f 302/79/298 334/82/299 342/81/300 313/80/301
f 303/83/302 314/85/302 341/84/303 331/69/304
f 39/70/52 32/87/69 340/86/248 347/70/252
f 326/202/286 310/204/305 339/205/306 348/203/287
f 32/87/69 30/90/72 338/90/249 340/86/248
f 355/91/307 359/94/308 335/93/309 306/92/310
f 48/95/77 26/96/78 334/24/245 374/21/244
f 42/97/79 353/198/241 333/201/243 25/98/79
f 310/204/305 304/206/311 332/207/312 339/205/306
f 349/101/313 354/104/314 332/103/315 304/102/316
f 307/105/317 337/106/318 354/104/314 349/101/313
f 28/107/88 336/208/319 353/198/320 42/97/89
f 305/109/321 350/64/281 352/35/258 326/110/322
f 326/110/322 352/35/258 351/32/257 310/33/256
f 307/111/323 349/31/254 351/32/257 312/36/260
f 336/208/319 308/209/324 350/199/324 353/198/320
f 321/72/292 346/73/291 359/94/308 355/91/307
f 307/111/323 312/36/260 356/56/277 357/55/276
f 357/55/276 377/43/264 536/40/263 307/111/323
f 313/80/301 342/81/300 363/78/297 361/77/296
f 369/45/268 379/53/274 360/46/269 315/38/261
f 320/50/273 318/51/272 362/47/159 360/46/269
f 313/113/325 361/116/326 378/115/327 368/114/328
f 368/114/328 378/115/327 379/53/274 369/45/268
f 355/117/329 306/118/330 365/41/266 376/42/265
f 30/119/72 47/122/103 375/121/331 338/120/249
f 47/122/103 48/95/77 374/21/244 375/121/331
f 317/123/332 321/126/333 372/125/334 370/124/335
f 370/124/335 372/125/334 373/57/278 371/54/275
f 361/116/326 317/123/332 370/124/335 378/115/327
f 378/115/327 370/124/335 371/54/275 379/53/274
f 302/127/336 313/113/325 368/114/328 366/128/337
f 366/128/337 368/114/328 369/45/268 367/44/267
f 338/120/249 375/121/331 367/130/338 309/129/250
f 375/121/331 374/21/244 366/22/247 367/130/338
f 426/131/339 380/134/340 17/133/113 22/132/112
f 428/135/341 382/136/342 380/134/340 426/131/339
f 430/137/343 384/138/344 382/136/342 428/135/341
f 432/139/345 386/140/346 384/138/344 430/137/343
f 434/141/347 388/142/348 386/140/346 432/139/345
f 436/143/349 390/144/350 388/142/348 434/141/347
f 438/145/351 392/146/352 390/144/350 436/143/349
f 19/147/127 8/148/128 392/146/352 438/145/351
f 471/132/183 395/133/180 397/134/181 468/131/182
f 468/131/182 397/134/181 399/136/184 466/135/185
f 466/135/185 399/136/184 401/138/186 464/137/187
f 464/137/187 401/138/186 403/140/188 462/139/189
f 462/139/189 403/140/188 405/142/190 460/141/191
f 460/141/191 405/142/190 407/150/192 458/149/193
f 458/149/193 407/150/192 409/146/194 456/145/195
f 456/145/195 409/146/194 411/148/196 454/147/197
f 454/147/197 411/148/196 413/146/198 452/145/199
f 452/145/199 413/146/198 415/144/200 450/143/201
f 450/143/201 415/144/200 417/142/202 448/141/203
f 448/141/203 417/142/202 419/140/204 446/139/205
f 446/139/205 419/140/204 421/138/206 444/137/207
f 444/137/207 421/138/206 423/136/208 442/135/209
f 397/1/24 395/2/24 425/3/24 423/4/24 421/5/24 419/6/24 417/7/24 415/8/24 413/9/24 411/10/24 409/11/24 407/12/24 405/13/24 403/14/24 401/15/24 399/16/24
f 442/135/209 423/136/208 425/134/210 440/131/211
f 440/131/211 425/134/210 395/133/180 471/132/183
f 394/151/159 396/152/159 398/160/159 400/154/159 402/155/159 404/156/159 406/157/159 408/158/159 410/159/159 412/158/159 414/157/159 416/156/159 418/155/159 420/154/159 422/153/159 424/152/159
f 9/159/162 20/162/165 439/161/353 393/158/354
f 20/162/165 19/147/127 438/145/351 439/161/353
f 393/158/354 439/161/353 437/163/355 391/157/356
f 439/161/353 438/145/351 436/143/349 437/163/355
f 391/157/356 437/163/355 435/164/357 389/156/358
f 437/163/355 436/143/349 434/141/347 435/164/357
f 389/156/358 435/164/357 433/165/359 387/155/360
f 435/164/357 434/141/347 432/139/345 433/165/359
f 387/155/360 433/165/359 431/166/361 385/154/362
f 433/165/359 432/139/345 430/137/343 431/166/361
f 385/154/362 431/166/361 429/167/363 383/153/364
f 431/166/361 430/137/343 428/135/341 429/167/363
f 383/153/364 429/167/363 427/168/365 381/152/366
f 429/167/363 428/135/341 426/131/339 427/168/365
f 381/152/366 427/168/365 21/169/179 18/151/178
f 427/168/365 426/131/339 22/132/112 21/169/179
f 394/151/132 470/169/129 469/168/130 396/152/131
f 470/169/129 471/132/183 468/131/182 469/168/130
f 396/152/131 469/168/130 467/167/133 398/160/134
f 469/168/130 468/131/182 466/135/185 467/167/133
f 398/160/134 467/167/133 465/166/135 400/154/136
f 467/167/133 466/135/185 464/137/187 465/166/135
f 400/154/136 465/166/135 463/165/137 402/155/138
f 465/166/135 464/137/187 462/139/189 463/165/137
f 402/155/138 463/165/137 461/164/139 404/156/140
f 463/165/137 462/139/189 460/141/191 461/164/139
f 404/156/140 461/164/139 459/163/141 406/157/142
f 461/164/139 460/141/191 458/149/193 459/163/141
f 406/157/142 459/163/141 457/161/143 408/158/144
f 459/163/141 458/149/193 456/145/195 457/161/143
f 408/158/144 457/161/143 455/162/145 410/159/146
f 457/161/143 456/145/195 454/147/197 455/162/145
f 410/159/146 455/162/145 453/161/147 412/158/148
f 455/162/145 454/147/197 452/145/199 453/161/147
f 412/158/148 453/161/147 451/163/149 414/157/150
f 453/161/147 452/145/199 450/143/201 451/163/149
f 414/157/150 451/163/149 449/164/151 416/156/152
f 451/163/149 450/143/201 448/141/203 449/164/151
f 416/156/152 449/164/151 447/165/153 418/155/154
f 449/164/151 448/141/203 446/139/205 447/165/153
f 418/155/154 447/165/153 445/166/155 420/154/156
f 447/165/153 446/139/205 444/137/207 445/166/155
f 420/154/156 445/166/155 443/167/157 422/153/158
f 445/166/155 444/137/207 442/135/209 443/167/157
f 422/153/158 443/167/157 441/168/160 424/152/161
f 443/167/157 442/135/209 440/131/211 441/168/160
f 424/152/161 441/168/160 470/169/129 394/151/132
f 441/168/160 440/131/211 471/132/183 470/169/129
f 535/132/183 473/133/180 475/134/181 532/131/182
f 532/131/182 475/134/181 477/136/184 530/135/185
f 530/135/185 477/136/184 479/138/186 528/137/187
f 528/137/187 479/138/186 481/140/188 526/139/189
f 526/139/189 481/140/188 483/142/190 524/141/191
f 524/141/191 483/142/190 485/150/192 522/149/193
f 522/149/193 485/150/192 487/146/194 520/145/195
f 520/145/195 487/146/194 489/148/196 518/147/197
f 518/147/197 489/148/196 491/146/198 516/145/199
f 516/145/199 491/146/198 493/144/200 514/143/201
f 514/143/201 493/144/200 495/142/202 512/141/203
f 512/141/203 495/142/202 497/140/204 510/139/205
f 510/139/205 497/140/204 499/138/206 508/137/207
f 508/137/207 499/138/206 501/136/208 506/135/209
f 475/1/24 473/2/24 503/3/24 501/4/24 499/5/24 497/6/24 495/7/24 493/8/24 491/9/24 489/10/24 487/11/24 485/12/24 483/13/24 481/14/24 479/15/24 477/16/24
f 506/135/209 501/136/208 503/134/210 504/131/211
f 504/131/211 503/134/210 473/133/180 535/132/183
f 472/151/159 474/152/159 476/160/159 478/154/159 480/155/159 482/156/159 484/157/159 486/158/159 488/159/159 490/158/159 492/157/159 494/156/159 496/155/159 498/154/159 500/153/159 502/152/159
f 472/151/132 534/169/129 533/168/130 474/152/131
f 534/169/129 535/132/183 532/131/182 533/168/130
f 474/152/131 533/168/130 531/167/133 476/160/134
f 533/168/130 532/131/182 530/135/185 531/167/133
f 476/160/134 531/167/133 529/166/135 478/154/136
f 531/167/133 530/135/185 528/137/187 529/166/135
f 478/154/136 529/166/135 527/165/137 480/155/138
f 529/166/135 528/137/187 526/139/189 527/165/137
f 480/155/138 527/165/137 525/164/139 482/156/140
f 527/165/137 526/139/189 524/141/191 525/164/139
f 482/156/140 525/164/139 523/163/141 484/157/142
f 525/164/139 524/141/191 522/149/193 523/163/141
f 484/157/142 523/163/141 521/161/143 486/158/144
f 523/163/141 522/149/193 520/145/195 521/161/143
f 486/158/144 521/161/143 519/162/145 488/159/146
f 521/161/143 520/145/195 518/147/197 519/162/145
f 488/159/146 519/162/145 517/161/147 490/158/148
f 519/162/145 518/147/197 516/145/199 517/161/147
f 490/158/148 517/161/147 515/163/149 492/157/150
f 517/161/147 516/145/199 514/143/201 515/163/149
f 492/157/150 515/163/149 513/164/151 494/156/152
f 515/163/149 514/143/201 512/141/203 513/164/151
f 494/156/152 513/164/151 511/165/153 496/155/154
f 513/164/151 512/141/203 510/139/205 511/165/153
f 496/155/154 511/165/153 509/166/155 498/154/156
f 511/165/153 510/139/205 508/137/207 509/166/155
f 498/154/156 509/166/155 507/167/157 500/153/158
f 509/166/155 508/137/207 506/135/209 507/167/157
f 500/153/158 507/167/157 505/168/160 502/152/161
f 507/167/157 506/135/209 504/131/211 505/168/160
f 502/152/161 505/168/160 534/169/129 472/151/132
f 505/168/160 504/131/211 535/132/183 534/169/129
f 335/93/309 359/94/308 43/171/213 27/170/212
f 342/81/300 34/173/215 46/172/214 363/78/297
f 341/84/303 364/174/217 45/174/217 33/84/216
f 345/76/294 358/175/219 44/175/219 37/76/218
f 346/73/291 38/176/220 43/171/213 359/94/308
f 337/106/318 29/178/222 41/177/221 354/104/314
f 354/104/314 41/177/221 24/179/223 332/103/315
f 339/205/306 332/207/312 24/181/225 31/180/224
f 348/203/287 339/205/306 31/180/224 40/182/226
f 358/175/219 336/183/319 28/183/88 44/175/219
f 331/69/304 341/84/303 33/84/216 23/69/227
f 334/82/299 26/184/228 34/173/215 342/81/300
f 364/174/217 343/75/295 35/75/229 45/174/217
f 363/78/297 46/172/214 36/185/230 344/74/290
f 343/75/295 345/76/294 37/76/218 35/75/229
f 344/74/290 36/185/230 38/176/220 346/73/291
f 333/201/288 348/203/287 40/182/226 25/98/231
f 538/210/367 50/189/234 29/188/234 337/211/368
f 335/212/369 27/193/234 49/192/234 537/213/370
f 537/213/370 49/192/234 50/189/234 538/210/367
f 536/214/371 365/215/372 537/213/370 538/210/367
f 335/212/369 537/213/370 365/215/372 306/216/373
f 337/211/368 307/217/374 536/214/371 538/210/367
f 355/117/329 376/42/265 372/125/334 321/126/333
f 373/57/278 372/125/334 376/42/265 377/43/264
f 357/55/276 324/49/270 373/57/278 377/43/264
